# xmcd
#
# Track frame offsets:
#	150
#	14866
#	31095
#	47674
#	60560
#
# Disc length: 1033 seconds
#
# Revision: 0
# Processed by: cddbd v1.5.2PL0 Copyright (c) Steve Scherf et al.
# Submitted via: EasyCDDAExtractor 4.5.0.2
#
DISCID=3a040705
DTITLE=Bayer Full - Oryginal Polis Songs
DYEAR=1900
DGENRE=disco polo
TTITLE0=Blondyneczka
TTITLE1=Jechali Cyganie
TTITLE2=Lipka zielona
TTITLE3=Serce i Len
TTITLE4=W moim ogrodeczku
EXTD=
EXTT0=
EXTT1=
EXTT2=
EXTT3=
EXTT4=
PLAYORDER=
